<?xml version="1.0" encoding="UTF-8"?>
<svg version="1.1" xmlns="http://www.w3.org/2000/svg" width="1920" height="540" viewBox="0 0 1920 540" fill-rule="evenodd">
<path d="M886.55273438 122.65136719 C885.14376496 123.87513245 883.72105718 125.0830354 882.296875 126.2890625 C877.02231339 130.81261037 872.2532628 135.2402116 870 142 C869.90709448 144.06869635 869.81809961 146.13775652 869.76147461 148.20776367 C869.45512085 158.21835307 868.69642465 165.66020238 861.3125 173 C857.17287065 176.3209713 853.30559105 177.58045814 848 177 C845.25 175.5625 845.25 175.5625 843 174 C840.68796578 173.37934406 840.68796578 173.37934406 838 174 C835.58926396 175.87712179 833.53112245 177.69675109 831.38671875 179.84375 C830.77230423 180.44626587 830.15788971 181.04878174 829.52485657 181.66955566 C828.23014243 182.94773312 826.94195715 184.23255299 825.65991211 185.5234375 C823.69912378 187.48835176 821.70634604 189.41611245 819.70898438 191.34375 C818.45362018 192.59163195 817.20029444 193.84156861 815.94921875 195.09375 C815.3524382 195.66492554 814.75565765 196.23610107 814.14079285 196.82458496 C811.22490386 199.82367103 809.6209256 201.91627179 809.44458008 206.18554688 C809.99698987 209.97932733 810.30071961 211.30071961 812.9375 213.9375 C813.57816406 214.5975 814.21882812 215.2575 814.87890625 215.9375 C815.57886719 216.618125 816.27882813 217.29875 817 218 C817.71027344 218.721875 818.42054688 219.44375 819.15234375 220.1875 C821.4156108 222.4786104 823.70359899 224.74212921 826 227 C830.94225088 231.85932721 835.72867513 236.75372132 840.24902344 242.00878906 C843.40457952 245.59728814 846.75976713 248.98432114 850.125 252.375 C850.81464844 253.08527344 851.50429688 253.79554688 852.21484375 254.52734375 C852.88902344 255.20667969 853.56320312 255.88601562 854.2578125 256.5859375 C854.8573877 257.1948584 855.45696289 257.8037793 856.07470703 258.43115234 C859.12310837 260.91517808 861.89235548 261.97538568 865.8125 262.0625 C872.47397027 259.84200991 877.14030697 253.86679784 882 249 C883.08633179 247.93527092 884.1736217 246.87151876 885.26171875 245.80859375 C886.40370861 244.68495964 887.54563484 243.56126084 888.6875 242.4375 C889.55858398 241.59155273 889.55858398 241.59155273 890.44726562 240.72851562 C891.00478516 240.17744141 891.56230469 239.62636719 892.13671875 239.05859375 C892.63905029 238.56673584 893.14138184 238.07487793 893.65893555 237.56811523 C895.99158173 234.84053715 896.94556123 232.6396556 897.25 229.0625 C897.18916038 226.03332733 897.18916038 226.03332733 895.875 223.6875 C894.50180938 219.46984309 895.45876351 216.08495865 897 212 C900.5349722 205.54232203 905.86778993 200.54165225 913.015625 198.39453125 C920.88022539 196.83090007 926.4070451 198.61516174 933 203 C935.20637257 204.9827025 937.22880838 207.02482294 939.2109375 209.23046875 C942.11865077 212.10643843 944.32033978 212.9244822 948.375 213.375 C955.49858886 212.63807701 960.14121189 207.1770475 965.0078125 202.328125 C965.65571747 201.68687683 966.30362244 201.04562866 966.97116089 200.38494873 C968.33348889 199.03270171 969.6931574 197.67777065 971.05029297 196.3203125 C973.11527112 194.25970827 975.19571408 192.21563898 977.27734375 190.171875 C978.60514629 188.84994158 979.93200116 187.52705546 981.2578125 186.203125 C981.87455841 185.60075012 982.49130432 184.99837524 983.1267395 184.37774658 C987.66304015 179.79339907 991.93296788 174.6867668 992.0546875 167.9921875 C990.6319248 163.95575703 988.50416804 160.66342272 986.125 157.125 C981.20002033 149.75882004 976.53737345 142.25196328 978 133 C980.52325855 122.772392 987.04621958 115.19745798 995.92016602 109.71020508 C1016.38024915 97.87054653 1039.27696403 93.68375346 1062.125 99.5625 C1063.00172363 99.80871094 1063.87844727 100.05492187 1064.78173828 100.30859375 C1069.99285005 101.73591115 1073.70460582 102.19828026 1079 101 C1079.92825062 98.50778773 1080.15895199 97.38910872 1079.13671875 94.88671875 C1068.87371727 79.31240653 1047.328319 71.90670401 1029.79296875 68.02734375 C973.63233482 56.76510066 926.93247771 87.40869179 886.55273438 122.65136719 Z M1185.86839294 91.77757263 C1185.04613724 92.60950638 1184.22388153 93.44144012 1183.37670898 94.29858398 C1182.69324402 94.98380127 1182.69324402 94.98380127 1181.99597168 95.68286133 C1180.48893741 97.19709332 1178.99269633 98.72155669 1177.49609375 100.24609375 C1176.45214906 101.29817258 1175.40746621 102.34951943 1174.36207581 103.40016174 C1171.60927327 106.17010219 1168.86515564 108.94848326 1166.12316895 111.72912598 C1161.73259437 116.1788393 1157.32933147 120.61598863 1152.92549324 125.05256844 C1151.38609231 126.60595889 1149.85055297 128.16308813 1148.3155365 129.72080994 C1147.37507264 130.67129573 1146.43453023 131.62170382 1145.49389648 132.57202148 C1144.67243637 133.40475082 1143.85097626 134.23748016 1143.00462341 135.09544373 C1141 137 1141 137 1139 138 C1139 138.66 1139 139.32 1139 140 C1138.11414404 140.39829671 1138.11414404 140.39829671 1137.210392 140.80463982 C1134.93588597 142.03467229 1133.45333851 143.30012726 1131.63372803 145.12576294 C1130.98875366 145.76798798 1130.3437793 146.41021301 1129.67926025 147.07189941 C1128.98298523 147.77536499 1128.28671021 148.47883057 1127.56933594 149.20361328 C1126.45655273 150.3159584 1126.45655273 150.3159584 1125.32128906 151.45077515 C1122.87088061 153.90257671 1120.427632 156.36138605 1117.984375 158.8203125 C1116.28658943 160.52182825 1114.58836171 162.22290292 1112.88970947 163.92355347 C1108.42025084 168.40064806 1103.95683086 172.88371638 1099.49462891 177.36804199 C1094.94014532 181.94298469 1090.37999433 186.51227048 1085.8203125 191.08203125 C1076.87464308 200.04914995 1067.9351471 209.02239708 1059 218 C1062.5722691 222.24843251 1066.21799242 226.34371562 1070.14404297 230.2734375 C1070.61974731 230.75089417 1071.09545166 231.22835083 1071.58557129 231.72027588 C1073.13529756 233.27434908 1074.68858871 234.82479888 1076.2421875 236.375 C1077.33560504 237.46909274 1078.42887423 238.56333376 1079.52200317 239.65771484 C1081.80487808 241.94205714 1084.08953363 244.22459912 1086.37548828 246.50585938 C1089.28585737 249.41053859 1092.19172187 252.31967615 1095.09625053 255.23019409 C1097.35083303 257.48841399 1099.60782138 259.74421733 1101.86551285 261.99932861 C1102.93700394 263.07015885 1104.00777006 264.14171507 1105.07775497 265.21405029 C1110.36722132 270.51258464 1115.66824275 275.74706392 1121.38601685 280.58827209 C1123.79440276 282.69485269 1125.89305589 285.03426688 1128 287.4375 C1128.763125 288.30246094 1129.52625 289.16742188 1130.3125 290.05859375 C1130.869375 290.69925781 1131.42625 291.33992187 1132 292 C1136.21433109 291.51722823 1138.46849119 288.94359771 1141.3024292 286.05833435 C1141.82445805 285.53886878 1142.3464869 285.0194032 1142.8843348 284.48419625 C1144.63420244 282.73927556 1146.37312255 280.98383797 1148.11230469 279.22827148 C1149.36346597 277.97626413 1150.61528794 276.72491671 1151.86772156 275.47418213 C1155.26875508 272.07401076 1158.66044773 268.66465665 1162.05057049 265.25361133 C1165.59397002 261.69148164 1169.14584426 258.1378232 1172.69683838 254.58326721 C1179.42114082 247.84963356 1186.13775818 241.10838777 1192.85166574 234.36439139 C1200.49503528 226.68751139 1208.14690621 219.01912932 1215.79951239 211.35145843 C1231.54250372 195.57709367 1247.27475817 179.79205774 1263 164 C1261.72627161 160.67523356 1260.67150799 158.29603969 1258.14257812 155.77026367 C1257.56858276 155.19003952 1256.9945874 154.60981537 1256.40319824 154.01200867 C1255.78545532 153.40347549 1255.1677124 152.79494232 1254.53125 152.16796875 C1253.57708191 151.2130529 1253.57708191 151.2130529 1252.6036377 150.23884583 C1251.26230094 148.89984335 1249.917285 147.56451761 1248.56884766 146.23266602 C1246.49850934 144.18602641 1244.44192013 142.12628102 1242.38671875 140.06445312 C1241.08152125 138.76482903 1239.77555795 137.46597348 1238.46875 136.16796875 C1237.85100708 135.54931442 1237.23326416 134.9306601 1236.59680176 134.29325867 C1233.80984803 131.0977161 1233.80984803 131.0977161 1230 130 C1229.66355469 129.15695313 1229.66355469 129.15695313 1229.3203125 128.296875 C1227.60134054 125.30647408 1225.47001533 123.53361349 1222.875 121.25 C1218.0552905 116.94766045 1213.44134387 112.47357883 1208.90625 107.875 C1208.1040654 107.06322296 1208.1040654 107.06322296 1207.28567505 106.23504639 C1205.09918499 104.02023678 1202.91432785 101.80411805 1200.74359131 99.57385254 C1199.19738995 97.98556927 1197.64242456 96.40631986 1196.0859375 94.828125 C1195.1789209 93.8990332 1194.2719043 92.96994141 1193.33740234 92.01269531 C1190.27591285 89.37650152 1189.00696843 89.16027698 1185.86839294 91.77757263 Z M38.6875 192.125 C30.45182912 201.97779654 28.85738679 213.01051248 28.82299805 225.38891602 C28.81642685 226.42229599 28.80985565 227.45567596 28.80308533 228.52037048 C28.78341779 231.93154991 28.77170305 235.34268539 28.76171875 238.75390625 C28.75764322 239.92369459 28.7535677 241.09348293 28.74936867 242.29871941 C28.72853384 248.49284563 28.71422202 254.68694987 28.70483398 260.88110352 C28.69378694 267.25383077 28.65939874 273.62620722 28.61966228 279.99881077 C28.59341923 284.92073684 28.58513521 289.84258036 28.58155251 294.76457024 C28.57670493 297.11231793 28.56514368 299.46006238 28.54651451 301.80774117 C28.42104557 318.67016868 28.57665636 333.55527344 40.5546875 346.70703125 C51.59830186 357.14298262 66.22331602 358.31155441 80.64453125 358.30078125 C82.57470345 358.30720894 82.57470345 358.30720894 84.54386902 358.31376648 C87.2543045 358.32117828 89.96460962 358.32097493 92.67504883 358.31567383 C96.1106855 358.30989283 99.54578064 358.3268012 102.98132801 358.3500185 C106.30658253 358.36848744 109.63172608 358.36456662 112.95703125 358.36328125 C114.7779705 358.37709587 114.7779705 358.37709587 116.63569641 358.39118958 C130.90723279 358.31508046 143.08249682 355.53391688 153.8125 345.75 C163.74565804 335.11402418 164.30718594 322.24413106 164.125 308.4375 C164.08375 304.003125 164.0425 299.56875 164 295 C150.14 295 136.28 295 122 295 C121.67 300.94 121.34 306.88 121 313 C120.01 314.98 119.02 316.96 118 319 C114.36828585 320.21057138 111.00952365 320.18123388 107.2265625 320.203125 C106.46580414 320.20882507 105.70504578 320.21452515 104.92123413 320.22039795 C103.31241238 320.22983748 101.70357138 320.23637778 100.09472656 320.24023438 C97.64093085 320.24993701 95.18797411 320.2809678 92.734375 320.3125 C91.16927579 320.31903085 89.60417061 320.324281 88.0390625 320.328125 C86.94351547 320.3466452 86.94351547 320.3466452 85.82583618 320.36553955 C81.3585052 320.34612798 78.31433979 320.09733386 75 317 C70.6261739 308.40945191 71.56494448 298.58494846 71.6015625 289.17578125 C71.59953881 287.34213648 71.59662493 285.5084925 71.59286499 283.67485046 C71.58845885 279.84622477 71.59481958 276.01781003 71.60888672 272.18920898 C71.62601402 267.2899852 71.61610421 262.39125326 71.59816933 257.49204731 C71.58731616 253.71130176 71.59078424 249.93067241 71.5985527 246.14992332 C71.60054859 244.34346648 71.598117 242.53699896 71.59111404 240.73055458 C71.58347019 238.20590961 71.59514277 235.68205686 71.61181641 233.1574707 C71.60574371 232.41707047 71.59967102 231.67667023 71.59341431 230.91383362 C71.65062484 226.22297844 72.50489299 222.97888535 75 219 C78.41053296 217.29473352 82.30602921 217.83679238 86.05859375 217.83203125 C87.40873314 217.82703865 87.40873314 217.82703865 88.78614807 217.82194519 C90.69181812 217.81687755 92.59749705 217.81453681 94.50317383 217.81469727 C97.42218616 217.81251147 100.34082024 217.79435601 103.25976562 217.77539062 C105.1093737 217.77245657 106.95898358 217.77047185 108.80859375 217.76953125 C109.68366074 217.76234573 110.55872772 217.75516022 111.46031189 217.74775696 C112.27448074 217.75083359 113.0886496 217.75391022 113.92749023 217.75708008 C114.64315659 217.75565506 115.35882294 217.75423004 116.09617615 217.75276184 C118 218 118 218 121 220 C121.43237305 222.24658203 121.43237305 222.24658203 121.51171875 225.0078125 C121.54716797 225.99394531 121.58261719 226.98007813 121.61914062 227.99609375 C121.64169922 229.02863281 121.66425781 230.06117188 121.6875 231.125 C121.72166016 232.16527344 121.75582031 233.20554688 121.79101562 234.27734375 C121.87367058 236.85145507 121.94276155 239.42521829 122 242 C125.38393008 243.69196504 129.22477791 243.11986549 132.9453125 243.09765625 C134.27283035 243.09553383 134.27283035 243.09553383 135.62716675 243.09336853 C138.45981191 243.0877614 141.29237864 243.07520771 144.125 243.0625 C146.04296761 243.05748592 147.96093646 243.05292285 149.87890625 243.04882812 C154.58596782 243.03778966 159.2929706 243.02052025 164 243 C164.10038357 238.6808038 164.17216491 234.36226129 164.21972656 230.04223633 C164.23959449 228.57889958 164.26669882 227.11563951 164.30175781 225.65258789 C164.59549025 213.06096964 163.64586542 200.93056322 155.04296875 190.93359375 C143.29932098 179.81866899 128.2151864 178.85063579 112.90234375 178.796875 C111.00265587 178.78832489 111.00265587 178.78832489 109.06459045 178.77960205 C106.38750631 178.77017428 103.7105336 178.76326643 101.03344727 178.75976562 C97.6438161 178.75431119 94.25459274 178.73032981 90.86508846 178.70179367 C87.58587244 178.67840163 84.3066314 178.67669975 81.02734375 178.671875 C79.83100815 178.6595282 78.63467255 178.6471814 77.40208435 178.63446045 C62.51818773 178.67304811 49.33942729 181.17553285 38.6875 192.125 Z M1293 193 C1285.94939736 202.70107489 1283.53878127 212.3043461 1283.61181641 224.16601562 C1283.60655945 225.2340593 1283.60130249 226.30210297 1283.59588623 227.4025116 C1283.58277185 230.90391016 1283.59139415 234.40484747 1283.6015625 237.90625 C1283.59953931 240.35664964 1283.59662584 242.8070487 1283.59286499 245.25744629 C1283.58845321 250.38148762 1283.59483589 255.50537156 1283.60888672 260.62939453 C1283.62597764 267.17939026 1283.61613034 273.72901712 1283.59816933 280.27899933 C1283.58730061 285.33549756 1283.59079203 290.39190912 1283.5985527 295.44841003 C1283.60054617 297.86280868 1283.59812562 300.27721533 1283.59111404 302.69160461 C1283.58344883 306.07260826 1283.59517517 309.45302421 1283.61181641 312.83398438 C1283.60574371 313.82025314 1283.59967102 314.80652191 1283.59341431 315.82267761 C1283.69493875 327.02305975 1286.99578588 337.4320099 1294.6640625 345.8203125 C1306.43424463 356.51559215 1321.82803122 358.14458422 1337.0390625 358.203125 C1338.19691254 358.20882507 1339.35476257 358.21452515 1340.54769897 358.22039795 C1342.99354141 358.22982047 1345.43939638 358.23637097 1347.88525391 358.24023438 C1351.59170196 358.24991305 1355.29758873 358.28095268 1359.00390625 358.3125 C1361.39062174 358.31903384 1363.77734116 358.32428281 1366.1640625 358.328125 C1367.80225449 358.3466452 1367.80225449 358.3466452 1369.47354126 358.36553955 C1384.03877198 358.32420637 1396.9556208 354.82136521 1407.875 344.875 C1415.31326697 337.01016575 1418.14611441 326.99905654 1418.09765625 316.38671875 C1418.09390991 314.70002075 1418.09390991 314.70002075 1418.09008789 312.97924805 C1418.08098389 311.56297119 1418.07187988 310.14669434 1418.0625 308.6875 C1418.0315625 301.9121875 1418.0315625 301.9121875 1418 295 C1404.47 295 1390.94 295 1377 295 C1376.67 300.28 1376.34 305.56 1376 311 C1373 318 1373 318 1371.21728516 319.11010742 C1364.27302624 320.1513334 1357.39265206 320.33165298 1350.375 320.3125 C1348.59222656 320.33666992 1348.59222656 320.33666992 1346.7734375 320.36132812 C1335.17577689 320.36780003 1335.17577689 320.36780003 1330 317 C1326.95262266 312.2373097 1326.56862131 308.01436777 1326.61181641 302.50366211 C1326.60655945 301.67201035 1326.60130249 300.84035858 1326.59588623 299.98350525 C1326.58273501 297.24792429 1326.59140611 294.51293012 1326.6015625 291.77734375 C1326.59954055 289.86975493 1326.59662811 287.96216687 1326.59286499 286.05458069 C1326.58844841 282.06259784 1326.59485198 278.07081677 1326.60888672 274.07885742 C1326.62598979 268.9653441 1326.61612607 263.8523028 1326.59816933 258.73880672 C1326.58732342 254.80197092 1326.59078135 250.86524685 1326.5985527 246.92840767 C1326.60055187 245.0429739 1326.59810538 243.15752994 1326.59111404 241.27210808 C1326.58348503 238.6367801 1326.59512341 236.00221463 1326.61181641 233.36694336 C1326.60270737 232.20180206 1326.60270737 232.20180206 1326.59341431 231.01312256 C1326.64634664 226.49657673 1327.23163331 223.60605844 1330 220 C1333.59537203 217.20810722 1337.98958868 217.69410571 1342.34375 217.69921875 C1343.55291077 217.69279106 1343.55291077 217.69279106 1344.78649902 217.68623352 C1346.48770205 217.68050068 1348.18892958 217.67998225 1349.89013672 217.68432617 C1352.49098493 217.68748904 1355.09069834 217.66400504 1357.69140625 217.63867188 C1359.34635273 217.63639904 1361.00130227 217.63569531 1362.65625 217.63671875 C1363.82045471 217.62290413 1363.82045471 217.62290413 1365.00817871 217.60881042 C1368.23754529 217.63645789 1370.59361062 217.77933444 1373.45898438 219.33520508 C1378.93585805 225.25199874 1376.6669579 236.67220015 1377 243 C1390.53 243 1404.06 243 1418 243 C1418.0825 238.318125 1418.165 233.63625 1418.25 228.8125 C1418.28641602 227.36464111 1418.32283203 225.91678223 1418.36035156 224.42504883 C1418.4578873 212.84897276 1416.80418786 202.01704742 1409.046875 193 C1399.99981466 184.16012424 1389.51905328 179.92040257 1376.93139648 179.83886719 C1375.72921982 179.82925964 1374.52704315 179.8196521 1373.28843689 179.80975342 C1371.99571365 179.80550354 1370.70299042 179.80125366 1369.37109375 179.796875 C1368.70663805 179.79404762 1368.04218235 179.79122025 1367.35759163 179.78830719 C1363.8359653 179.7733455 1360.31437956 179.76409904 1356.79272461 179.75976562 C1353.18761709 179.7543087 1349.58289255 179.73033161 1345.97790432 179.70179367 C1343.17829882 179.68299147 1340.37878198 179.6779523 1337.57911873 179.67642975 C1335.61409729 179.67200012 1333.64912365 179.65343553 1331.68418884 179.63446045 C1317.67604898 179.66879992 1303.15913213 182.60997851 1293 193 Z M1452.8984375 190.88671875 C1439.79634862 205.07600224 1440.54198364 223.63691189 1440.6015625 241.78515625 C1440.59953675 243.97602942 1440.59662116 246.16690194 1440.59286499 248.35777283 C1440.58846618 252.92746462 1440.59479412 257.49697934 1440.60888672 262.06665039 C1440.62598711 267.89208333 1440.61611612 273.71710175 1440.59816933 279.54251957 C1440.58727389 284.0595557 1440.59080398 288.57649526 1440.5985527 293.09353447 C1440.60053829 295.24030037 1440.59815392 297.38707536 1440.59111404 299.53383064 C1440.54689484 316.80106914 1440.94118276 332.90473592 1453.2265625 346.375 C1464.53067364 356.73295206 1479.02113278 358.6244413 1493.72265625 358.49609375 C1495.19990612 358.4962493 1496.67715638 358.49774741 1498.15440369 358.50050354 C1501.22787858 358.50187647 1504.30088055 358.48951642 1507.37426758 358.46655273 C1511.27964788 358.4381459 1515.18424606 358.4409271 1519.08968449 358.45364285 C1522.13295473 358.4606541 1525.1760496 358.45274969 1528.21929741 358.44038582 C1529.65794638 358.43592574 1531.09661455 358.43548584 1532.53526497 358.43945122 C1547.44797125 358.46133047 1561.36481996 356.16787021 1572.8125 345.875 C1581.94497035 335.95221972 1584.30922351 323.51415129 1584.2746582 310.5300293 C1584.27976913 309.52386566 1584.28488007 308.51770203 1584.29014587 307.48104858 C1584.30396365 304.17871023 1584.30309082 300.87658245 1584.30078125 297.57421875 C1584.30467278 295.26170271 1584.30900838 292.94918739 1584.31376648 290.63667297 C1584.32121215 285.7975533 1584.32094962 280.95850661 1584.31567383 276.11938477 C1584.30988486 269.94286218 1584.32680471 263.76664001 1584.3500185 257.59016705 C1584.36480904 252.81582415 1584.36562025 248.04155269 1584.36250877 243.26719093 C1584.36301942 240.99120298 1584.36820857 238.71521077 1584.37832069 236.43924522 C1584.51442025 212.40375963 1584.51442025 212.40375963 1573.06640625 191.77734375 C1563.47076841 182.35777266 1551.11771407 179.98148234 1538.1875 179.4375 C1537.20136719 179.3957666 1536.21523437 179.3540332 1535.19921875 179.31103516 C1526.30025836 178.9770515 1517.40402999 178.89084463 1508.5 178.875 C1507.1905542 178.87040771 1505.8811084 178.86581543 1504.53198242 178.86108398 C1476.87767038 178.60297663 1476.87767038 178.60297663 1452.8984375 190.88671875 Z M184 181 C183.97667342 203.66950959 183.95902201 226.3390172 183.94818783 249.00853634 C183.94302436 259.53360838 183.93598069 270.05867297 183.92456055 280.58374023 C183.91461527 289.75388597 183.90814695 298.92402632 183.90591151 308.09417731 C183.90460413 312.95285144 183.90151661 317.81151016 183.89426994 322.67017937 C183.88751218 327.23780574 183.88538254 331.80541026 183.88689232 336.37304115 C183.88661588 338.05451959 183.88460931 339.73599871 183.88079453 341.41747284 C183.87586108 343.70302014 183.8770004 345.98848358 183.87974548 348.27403259 C183.87882369 349.55624663 183.8779019 350.83846067 183.87695217 352.15952969 C183.67513436 354.90041483 183.67513436 354.90041483 185 356 C186.35094982 356.09268999 187.70667091 356.11747326 189.06079102 356.11352539 C189.93368774 356.11340454 190.80658447 356.11328369 191.70593262 356.11315918 C193.09092957 356.10548523 193.09092957 356.10548523 194.50390625 356.09765625 C195.3482019 356.09664917 196.19249756 356.09564209 197.06237793 356.09460449 C200.22909902 356.0893557 203.39580081 356.07539456 206.5625 356.0625 C213.636875 356.041875 220.71125 356.02125 228 356 C228 336.86 228 317.72 228 298 C234.93 298 241.86 298 249 298 C249.66 299.98 250.32 301.96 251 304 C252.06911004 306.32009405 253.16099637 308.60284304 254.30859375 310.8828125 C254.79792137 311.86433792 254.79792137 311.86433792 255.2971344 312.86569214 C255.9903125 314.25340512 256.68549869 315.64011664 257.38256836 317.02587891 C258.40873015 319.06775326 259.42654712 321.11361352 260.44335938 323.16015625 C266.01867105 334.28956053 271.98865577 345.07028322 278 356 C293.18 356 308.36 356 324 356 C322.55063185 351.65189556 321.18168404 348.16419488 319.09375 344.17578125 C318.51939209 343.07355225 317.94503418 341.97132324 317.35327148 340.83569336 C316.74169189 339.67303955 316.1301123 338.51038574 315.5 337.3125 C314.86689178 336.10118986 314.23416387 334.88968087 313.60180664 333.67797852 C309.49567709 325.81775209 305.3608115 317.97245932 301.21923828 310.13085938 C298.40285839 304.79154704 295.64948796 299.42447799 293 294 C293.73347656 293.88914062 294.46695313 293.77828125 295.22265625 293.6640625 C302.48288828 291.92814204 309.04462343 286.22541877 313 280 C317.68900786 270.55844758 319.15491693 262.37985601 319.203125 251.95703125 C319.20882507 250.99278732 319.21452515 250.0285434 319.22039795 249.03507996 C319.22981882 246.99857673 319.23637031 244.96205846 319.24023438 242.92553711 C319.24991356 239.84005505 319.28095422 236.75524715 319.3125 233.66992188 C319.31903386 231.68229558 319.32428283 229.69466457 319.328125 227.70703125 C319.3466452 226.34394585 319.3466452 226.34394585 319.36553955 224.95332336 C319.32542357 213.18042827 315.93406904 202.59341005 307.99609375 193.7734375 C297.94543727 184.17227371 285.69829656 180.66275428 272.09570312 180.77294922 C270.66017593 180.77251114 270.66017593 180.77251114 269.19564819 180.77206421 C266.05742066 180.7734487 262.91943565 180.78896827 259.78125 180.8046875 C257.59550099 180.80842076 255.40975031 180.81126625 253.22399902 180.81326294 C247.48982061 180.82087472 241.75574459 180.84050207 236.02160645 180.8626709 C230.16285588 180.88318231 224.30408867 180.89227596 218.4453125 180.90234375 C206.96349685 180.92375032 195.48175696 180.95785652 184 181 Z M389 181 C378.8097296 215.58781361 368.63740039 250.18076135 358.5368309 284.79489136 C357.88809241 287.01764192 357.23897845 289.24028249 356.5897522 291.46289062 C350.31328809 312.95284357 344.1359692 334.46942003 338 356 C352.52 356 367.04 356 382 356 C383.32 351.111875 384.64 346.22375 386 341.1875 C386.41765625 339.64860107 386.8353125 338.10970215 387.265625 336.52416992 C387.59046875 335.31349854 387.9153125 334.10282715 388.25 332.85546875 C388.58515625 331.61434326 388.9203125 330.37321777 389.265625 329.09448242 C390.1154522 326.04358326 390.1154522 326.04358326 390 323 C408.81 323 427.62 323 447 323 C448.32 328.61 449.64 334.22 451 340 C451.71170202 342.83777061 452.43462413 345.6728743 453.1875 348.5 C453.51105469 349.7271875 453.83460938 350.954375 454.16796875 352.21875 C454.72542768 354.88368786 454.72542768 354.88368786 456 356 C457.35094982 356.09268999 458.70667091 356.11747326 460.06079102 356.11352539 C460.92160782 356.11344986 461.78242462 356.11337433 462.66932678 356.11329651 C464.07244362 356.10555458 464.07244362 356.10555458 465.50390625 356.09765625 C466.93342873 356.09553383 466.93342873 356.09553383 468.39183044 356.09336853 C471.44875165 356.08775152 474.50560077 356.07519616 477.5625 356.0625 C479.62955624 356.05748719 481.69661362 356.05292391 483.76367188 356.04882812 C488.84247588 356.03777656 493.9212257 356.02050055 499 356 C496.78692204 346.8004238 494.24261604 337.71143169 491.59765625 328.62890625 C491.16296407 327.1300863 490.72847052 325.63120873 490.29415894 324.13227844 C489.36811724 320.93780675 488.44070504 317.74373752 487.51217651 314.54998779 C486.04501923 309.50353863 484.58102476 304.45617522 483.11743164 299.40869141 C480.8368393 291.54495882 478.55423595 283.68181177 476.27068043 275.81893921 C472.47366002 262.74474454 468.67915657 249.66981982 464.88685894 236.59425449 C463.60858638 232.18719438 462.32918437 227.78046437 461.04878235 223.37402248 C460.24901573 220.62097749 459.45010006 217.86768601 458.651371 215.11433983 C458.11959293 213.28218355 457.5867891 211.45032508 457.05392456 209.6184845 C454.29347621 200.09800989 451.65362461 190.55304859 449 181 C429.2 181 409.4 181 389 181 Z M628.43161011 179.91770935 C626.99167096 179.9282379 626.99167096 179.9282379 625.52264214 179.93897915 C624.46184504 179.95194562 623.40104794 179.96491209 622.30810547 179.97827148 C621.17787523 179.98806314 620.047645 179.99785479 618.88316536 180.00794315 C615.21111066 180.0409159 611.53916937 180.08088559 607.8671875 180.12109375 C605.60555442 180.142428 603.34391699 180.16330544 601.08227539 180.18371582 C592.67979626 180.26276492 584.27740239 180.35067616 575.875 180.4375 C557.10625 180.623125 538.3375 180.80875 519 181 C519 238.75 519 296.5 519 356 C532.86 356 546.72 356 561 356 C561 334.22 561 312.44 561 290 C581.79 290 602.58 290 624 290 C624 277.13 624 264.26 624 251 C603.21 251.33 582.42 251.66 561 252 C561.33 241.44 561.66 230.88 562 220 C586.09 219.67 610.18 219.34 635 219 C635 206.46 635 193.92 635 181 C632.58814833 179.79407416 631.12433504 179.89107801 628.43161011 179.91770935 Z M653 181 C653 193.54 653 206.08 653 219 C667.85 219 682.7 219 698 219 C698 264.21 698 309.42 698 356 C712.19 356 726.38 356 741 356 C741.33 311.12 741.66 266.24 742 220 C756.85 220 771.7 220 787 220 C787 207.13 787 194.26 787 181 C742.78 181 698.56 181 653 181 Z M1609 181 C1609 239.08 1609 297.16 1609 357 C1623.52 357.061875 1638.04 357.12375 1653 357.1875 C1659.82945313 357.22846802 1659.82945313 357.22846802 1666.796875 357.27026367 C1670.94530913 357.2803085 1670.94530913 357.2803085 1675.09375 357.28633118 C1676.91473604 357.29088155 1678.73571413 357.30131272 1680.55664062 357.31672668 C1695.03926434 357.43299129 1710.35368118 357.47028477 1723.4375 350.375 C1724.0972583 350.02872559 1724.7570166 349.68245117 1725.43676758 349.32568359 C1736.13861183 343.44236742 1742.60641506 335.13240887 1746.04263306 323.45756531 C1747.22211465 318.63370879 1747.29553506 313.97281867 1747.29052734 309.02661133 C1747.29724457 308.06121429 1747.30396179 307.09581726 1747.31088257 306.10116577 C1747.32978872 302.9280677 1747.3337833 299.75518205 1747.3359375 296.58203125 C1747.34237144 294.36016251 1747.34910024 292.13829461 1747.35610962 289.91642761 C1747.36806461 285.26384519 1747.37179236 280.61133692 1747.37060547 275.95874023 C1747.37040259 270.02546368 1747.3976807 264.09266777 1747.43214989 258.15950489 C1747.45449683 253.57040771 1747.45844059 248.98142467 1747.45738602 244.39227867 C1747.45973117 242.20642125 1747.46849277 240.02056016 1747.48405075 237.83475685 C1747.59065303 221.30838914 1747.0069204 206.86465644 1735.22265625 194.0703125 C1720.53295756 180.07154033 1699.90550518 180.5542924 1680.97265625 180.70703125 C1679.12138135 180.71145442 1677.27010267 180.71450734 1675.41882324 180.71618652 C1668.63332411 180.73177246 1661.84790584 180.77365554 1655.0625 180.8125 C1632.2615625 180.9053125 1632.2615625 180.9053125 1609 181 Z M1773 181 C1773 239.08 1773 297.16 1773 357 C1811.28 357 1849.56 357 1889 357 C1889 344.13 1889 331.26 1889 318 C1864.58 318 1840.16 318 1815 318 C1815 307.77 1815 297.54 1815 287 C1836.12 287 1857.24 287 1879 287 C1879 274.79 1879 262.58 1879 250 C1857.88 250 1836.76 250 1815 250 C1815 239.77 1815 229.54 1815 219 C1839.42 219 1863.84 219 1889 219 C1889 206.46 1889 193.92 1889 181 C1850.72 181 1812.44 181 1773 181 Z M995.6015625 193.82421875 C994.963396 194.43467041 994.32522949 195.04512207 993.66772461 195.67407227 C992.99362549 196.33850342 992.31952637 197.00293457 991.625 197.6875 C990.20288306 199.06619854 988.77968343 200.44378106 987.35546875 201.8203125 C986.63536621 202.51930664 985.91526367 203.21830078 985.17333984 203.93847656 C983.09387853 205.91095144 980.96800753 207.80452783 978.80078125 209.6796875 C978.14964355 210.25114502 977.49850586 210.82260254 976.82763672 211.41137695 C975.59046599 212.49210359 974.34108247 213.55904462 973.07861328 214.61010742 C971.17084605 216.22670681 971.17084605 216.22670681 969 219 C968.92834455 222.40995634 969.33496601 224.11704527 971.3828125 226.8359375 C972.24519531 227.59777344 972.24519531 227.59777344 973.125 228.375 C975.6902851 230.70893313 978.03531492 233.10731619 980.2890625 235.7421875 C983.84176594 239.84436566 987.52230527 243.80708605 991.25 247.75 C996.65110852 253.4868045 1002.01030248 259.2564645 1007.32421875 265.07421875 C1010.20618185 268.22544555 1013.10141381 271.36407555 1016 274.5 C1019.80298921 278.61477952 1023.59440751 282.7396305 1027.375 286.875 C1032.12559962 292.06807861 1036.92477087 297.21481887 1041.73120117 302.35620117 C1049.82552341 311.01753572 1057.85228264 319.74055883 1065.85839844 328.48339844 C1070.71866471 333.78898617 1075.60096539 339.07415637 1080.48388672 344.35888672 C1082.99014104 347.07177586 1085.49500446 349.78594859 1088 352.5 C1088.99999324 353.58333957 1089.99999324 354.66667291 1091 355.75 C1093 357.91666667 1095 360.08333333 1097 362.25 C1097.49508057 362.78633057 1097.99016113 363.32266113 1098.50024414 363.87524414 C1099.49945738 364.95773871 1100.49864362 366.04025821 1101.49780273 367.12280273 C1104.00961835 369.84417508 1106.52191333 372.56510195 1109.03515625 375.28515625 C1116.16115835 382.9987752 1123.26329489 390.73388014 1130.35449219 398.47949219 C1135.55864725 404.16322381 1140.7705453 409.83952779 1146 415.5 C1149.90154065 419.72394039 1153.79922732 423.95134003 1157.6875 428.1875 C1158.57953125 429.15816406 1159.4715625 430.12882813 1160.390625 431.12890625 C1162.12603446 433.03837624 1163.84499425 434.96293056 1165.546875 436.90234375 C1166.33578125 437.80082031 1167.1246875 438.69929687 1167.9375 439.625 C1168.62714844 440.42164063 1169.31679687 441.21828125 1170.02734375 442.0390625 C1173.63670597 445.62698296 1176.58697181 446.32450992 1181.625 446.4375 C1194.3748882 446.11374226 1202.61047119 437.7271022 1211 429 C1216.65794426 422.75858024 1221.88655013 416.71502522 1222.4375 408 C1221.83811382 398.6528793 1214.01617942 392.62750878 1207.75 386.5 C1206.37521484 385.13294922 1206.37521484 385.13294922 1204.97265625 383.73828125 C1200.35717562 379.17547372 1195.66863733 374.76310395 1190.74707031 370.53320312 C1188.20430214 368.3017073 1185.8638009 365.92075995 1183.5 363.5 C1180.46952385 360.42374941 1177.42040775 357.41983949 1174.125 354.625 C1170.38456728 351.43870546 1166.95196772 347.99119462 1163.5 344.5 C1158.4615023 339.4041771 1158.4615023 339.4041771 1153.125 334.625 C1148.34397737 330.57638935 1144.01212859 326.0619646 1139.62939453 321.59228516 C1136.55567224 318.47633471 1133.44680539 315.47651988 1130.125 312.625 C1124.46246236 307.7423657 1119.30757995 302.35264544 1114.06640625 297.02734375 C1110.47063773 293.39660828 1106.87853044 289.82942643 1103 286.5 C1097.37187243 281.66867614 1092.26563402 276.31002622 1087.06640625 271.02734375 C1082.81518875 266.7347854 1078.49949355 262.62793015 1073.91601562 258.69335938 C1069.96349442 255.20015256 1066.33349807 251.37209803 1062.64453125 247.60546875 C1059.59500929 244.51758802 1056.51742654 241.5404285 1053.21875 238.71875 C1047.3503623 233.65861744 1041.99970924 228.0568091 1036.56347656 222.54296875 C1031.41864424 217.33141164 1026.24864008 212.22056297 1020.68017578 207.45751953 C1018.48749654 205.5554133 1016.45845734 203.51981468 1014.4375 201.4375 C1011.73471887 198.716079 1009.03036136 196.0130838 1006.1875 193.4375 C1005.40439453 192.72400391 1005.40439453 192.72400391 1004.60546875 191.99609375 C1000.82549354 189.65085365 998.38657258 191.11169743 995.6015625 193.82421875 Z M991.58811951 286.17414856 C990.98137894 286.78965073 990.37463837 287.40515289 989.74951172 288.03930664 C989.10858078 288.68155182 988.46764984 289.323797 987.80729675 289.98550415 C985.67681043 292.12251161 983.55338108 294.26640004 981.4296875 296.41015625 C979.95006343 297.89605043 978.46992323 299.38143082 976.98928833 300.86631775 C973.07872582 304.79022067 969.17374776 308.71963096 965.27032471 312.65063477 C959.04482762 318.91912101 952.81281467 325.18110966 946.57733536 331.43966484 C944.40588414 333.6212785 942.23791857 335.80631146 940.07028198 337.99171448 C938.72259349 339.34623994 937.37479047 340.70065148 936.02685547 342.05493164 C935.43226028 342.65626419 934.8376651 343.25759674 934.22505188 343.87715149 C930.56123118 347.55068284 926.75925105 351.00240985 922.83483887 354.39547825 C920.52904979 356.41183445 918.33604953 358.52280844 916.16040039 360.6784668 C914.8748098 361.94964607 914.8748098 361.94964607 913.56324768 363.24650574 C912.21902992 364.58434868 912.21902992 364.58434868 910.84765625 365.94921875 C910.3818408 366.41220682 909.91602535 366.87519489 909.43609428 367.35221291 C906.98133896 369.79212001 904.52935919 372.23477418 902.07983398 374.67993164 C899.55577635 377.19845811 897.02253355 379.70753572 894.48714542 382.21464825 C892.05910563 384.6196236 889.64161547 387.03511062 887.22265625 389.44921875 C886.31234146 390.34718674 885.40202667 391.24515472 884.46412659 392.17033386 C883.62913132 393.00833023 882.79413605 393.8463266 881.93383789 394.7097168 C880.82752769 395.81055855 880.82752769 395.81055855 879.6988678 396.93363953 C877.91652098 399.10153689 877.03022066 400.18612817 877 403 C878.46990445 405.1941327 878.46990445 405.1941327 880.72265625 407.27441406 C881.56103027 408.10918274 882.3994043 408.94395142 883.26318359 409.80401611 C884.18695801 410.69884705 885.11073242 411.59367798 886.0625 412.515625 C887.01239103 413.45363983 887.9611052 414.39284779 888.90869141 415.33319092 C891.4139536 417.81365573 893.93337726 420.27921875 896.45648193 422.74151611 C899.98501629 426.18996115 903.49453201 429.65776751 907.00561523 433.1239624 C908.87370342 434.96813381 910.74759973 436.80568166 912.62524414 438.64019775 C917.10333869 443.03421575 921.41385216 447.48325024 925.49581909 452.24819946 C929.16700467 456.52373895 933.13224185 460.52720154 937.0625 464.5625 C937.93455078 465.48869141 938.80660156 466.41488281 939.70507812 467.36914062 C940.55650391 468.23861328 941.40792969 469.10808594 942.28515625 470.00390625 C943.42803101 471.19222046 943.42803101 471.19222046 944.59399414 472.40454102 C946.91858369 474.29027872 946.91858369 474.29027872 949.86882019 473.8467865 C953.48800893 472.86802439 954.89796529 471.70443824 957.50488281 469.046875 C958.33884583 468.20930664 959.17280884 467.37173828 960.03204346 466.50878906 C961.35422882 465.14318848 961.35422882 465.14318848 962.703125 463.75 C964.10696313 462.33173181 965.51080296 460.9134653 966.91474533 459.49530029 C968.87261697 457.51110835 970.81861348 455.51545451 972.76501465 453.52001953 C976.1823244 450.02208768 979.61977372 446.54392518 983.05487061 443.06347656 C984.88184437 441.21000511 986.70490785 439.35266988 988.52374268 437.49121094 C989.34509705 436.65364258 990.16645142 435.81607422 991.01269531 434.953125 C991.73628235 434.21223633 992.45986938 433.47134766 993.2053833 432.70800781 C995 431 995 431 997 430 C997 429.34 997 428.68 997 428 C997.53044418 427.79389099 998.06088837 427.58778198 998.60740662 427.37542725 C1001.99220828 425.42961043 1004.54726485 422.73908541 1007.28149414 419.99316406 C1007.90148788 419.37828125 1008.52148163 418.76339844 1009.16026306 418.12988281 C1011.20709276 416.09694612 1013.24641456 414.05667054 1015.28515625 412.015625 C1016.70692805 410.5977406 1018.12892324 409.18008018 1019.5511322 407.76263428 C1022.53108171 404.79014661 1025.50712542 401.81381244 1028.48071289 398.83496094 C1032.28762396 395.02225888 1036.10576833 391.22103349 1039.92716312 387.42285538 C1042.86723333 384.49753408 1045.80032909 381.56529678 1048.73147392 378.63103485 C1050.13611672 377.2269048 1051.54311923 375.82513114 1052.95253181 374.42578888 C1054.92491923 372.46576885 1056.88748834 370.49640219 1058.84790039 368.52441406 C1059.42927765 367.95068054 1060.01065491 367.37694702 1060.60964966 366.78582764 C1063.9046823 363.44774307 1066.11816193 360.37308225 1068 356 C1067.57589844 355.5875 1067.15179687 355.175 1066.71484375 354.75 C1063.57684993 351.66028301 1060.55070183 348.53471928 1057.6875 345.1875 C1054.92381971 341.97666245 1052.01380404 338.97732835 1049 336 C1046.06881809 333.10408042 1043.23596826 330.19757429 1040.5625 327.0625 C1037.25788884 323.19540184 1033.67154696 319.64222155 1030.05371094 316.07324219 C1026.75974197 312.80651487 1023.68525658 309.42114792 1020.67578125 305.89453125 C1018.23589108 303.13614726 1015.59973072 300.59046847 1012.9765625 298.0078125 C1011.02492009 296.02531409 1009.19241483 293.9806392 1007.375 291.875 C1004.38476951 288.41262785 1001.35175579 285.11791236 998 282 C994.89636478 282 993.6724435 284.09472298 991.58811951 286.17414856 Z " fill="currentColor" transform="translate(0,0)"/>
<path d="M0 0 C4.90473901 4.11329871 9.5219528 8.38542461 14.02734375 12.9296875 C14.66112442 13.56488312 15.29490509 14.20007874 15.94789124 14.85452271 C17.94681406 16.85898716 19.94220784 18.86692214 21.9375 20.875 C23.30250133 22.24502389 24.6677336 23.61481774 26.03320312 24.984375 C29.35814211 28.32026543 32.67992353 31.65927036 36 35 C34.27845212 38.76488042 32.00765886 41.15063897 29 44 C25.95418514 42.63886987 23.86160974 41.10669904 21.51660156 38.74365234 C20.85621887 38.08311859 20.19583618 37.42258484 19.51544189 36.74203491 C18.81425232 36.03052277 18.11306274 35.31901062 17.390625 34.5859375 C16.66381531 33.85629791 15.93700562 33.12665833 15.18817139 32.37490845 C12.87070802 30.0462612 10.5603005 27.71075174 8.25 25.375 C6.67884556 23.79381347 5.10723629 22.21307875 3.53515625 20.6328125 C-0.31518653 16.7604331 -4.15976117 12.88239829 -8 9 C-7.04270084 7.87411986 -6.08412105 6.7493285 -5.125 5.625 C-4.59132813 4.99851563 -4.05765625 4.37203125 -3.5078125 3.7265625 C-2.38567993 2.44163349 -1.20628025 1.20628025 0 0 Z " fill="currentColor" transform="translate(1192,130)"/>
<path d="M0 0 C3.36179774 1.44077046 5.59156268 3.24750021 8 6 C8 6.66 8 7.32 8 8 C8.66 8 9.32 8 10 8 C11.2265625 9.28515625 11.2265625 9.28515625 12.625 11.0625 C15.47172765 14.50489329 18.57813484 17.33931128 21.96875 20.234375 C24.02005854 22.0174355 25.99194519 23.8522867 27.9375 25.75 C28.50339844 26.30171875 29.06929687 26.8534375 29.65234375 27.421875 C31 29 31 29 32 32 C29.69 34.31 27.38 36.62 25 39 C21.80228881 37.4011444 20.33550845 36.58401307 17.97558594 34.20263672 C17.41530701 33.64220673 16.85502808 33.08177673 16.277771 32.50436401 C15.68595032 31.90222076 15.09412964 31.30007751 14.484375 30.6796875 C13.86854553 30.06102814 13.25271606 29.44236877 12.6182251 28.80496216 C10.65739664 26.83296186 8.70364699 24.85411263 6.75 22.875 C5.41973201 21.53469836 4.089008 20.19484917 2.7578125 18.85546875 C-0.5001015 15.57553411 -3.75168533 12.28944058 -7 9 C-5.27845212 5.23511958 -3.00765886 2.84936103 0 0 Z " fill="currentColor" transform="translate(1161,159)"/>
<path d="M0 0 C4.83298806 4.02748053 9.38110004 8.24379413 13.80859375 12.7109375 C14.72597069 13.63043686 14.72597069 13.63043686 15.66188049 14.56851196 C17.58947559 16.50164564 19.51353928 18.43824987 21.4375 20.375 C22.75432404 21.69684699 24.07137926 23.01846372 25.38867188 24.33984375 C28.59512373 27.55724299 31.79841629 30.77775681 35 34 C34.06725891 35.12894876 33.12859878 36.25300876 32.1875 37.375 C31.66542969 38.00148437 31.14335938 38.62796875 30.60546875 39.2734375 C29 41 29 41 26 43 C14.78 31.78 3.56 20.56 -8 9 C-2 2 -2 2 0 0 Z " fill="currentColor" transform="translate(1131,189)"/>
<path d="M0 0 C1.12409775 -0.0049926 1.12409775 -0.0049926 2.27090454 -0.01008606 C3.84921662 -0.01512587 5.42753926 -0.0174953 7.00585938 -0.01733398 C9.39992105 -0.01951835 11.79351976 -0.03769935 14.1875 -0.05664062 C15.72916511 -0.05957574 17.27083238 -0.06155974 18.8125 -0.0625 C19.8707045 -0.07327827 19.8707045 -0.07327827 20.95028687 -0.08427429 C26.42780973 -0.059519 32.9378458 0.06675205 36.9765625 4.10546875 C39.21689872 8.45435671 39.19943051 12.41197435 39.21606445 17.18432617 C39.22592125 18.40928802 39.22592125 18.40928802 39.23597717 19.65899658 C39.25569963 22.36381117 39.26737169 25.06857021 39.27734375 27.7734375 C39.28141928 28.69846888 39.2854948 29.62350025 39.28969383 30.57656288 C39.31055213 35.47462363 39.32485374 40.3726564 39.33422852 45.27075195 C39.34528007 50.320195 39.37966617 55.36919581 39.41940022 60.41848278 C39.44559835 64.30909522 39.45392329 68.19960291 39.45750999 72.09029579 C39.46236929 73.95095105 39.4739645 75.81160184 39.49254799 77.67217064 C39.51700315 80.28334511 39.51596278 82.89338377 39.5090332 85.50463867 C39.52184326 86.2659761 39.53465332 87.02731354 39.54785156 87.8117218 C39.49549757 93.254335 38.20689903 97.67656978 35.0390625 102.16796875 C30.39604833 104.72137402 25.32195209 104.47463758 20.1328125 104.46875 C18.86842346 104.47517769 18.86842346 104.47517769 17.57849121 104.48173523 C15.8034759 104.48745598 14.02843716 104.48799549 12.25341797 104.48364258 C9.54744332 104.48047855 6.84255882 104.50398338 4.13671875 104.52929688 C2.40625137 104.5315698 0.67578107 104.5322734 -1.0546875 104.53125 C-1.85797485 104.54045975 -2.66126221 104.54966949 -3.4888916 104.55915833 C-8.37926337 104.51913007 -11.71530969 103.85473112 -15.9609375 101.16796875 C-20.44231017 95.60488543 -20.08561347 88.59238026 -20.10620117 81.73901367 C-20.10955978 81.03229019 -20.1129184 80.32556671 -20.11637878 79.59742737 C-20.1258103 77.2810791 -20.12782797 74.96480373 -20.12890625 72.6484375 C-20.13212435 71.02329988 -20.13548883 69.39816254 -20.13899231 67.77302551 C-20.14496416 64.37300953 -20.14683422 60.9730189 -20.14624023 57.57299805 C-20.14613875 53.23919866 -20.15978582 48.9055636 -20.17701244 44.57180309 C-20.18818964 41.21640797 -20.19015769 37.86105185 -20.18963051 34.50564003 C-20.19080221 32.90902452 -20.19517794 31.31240773 -20.20296288 29.71581078 C-20.2963385 8.58766307 -20.2963385 8.58766307 -16.2109375 2.60546875 C-11.42000315 -0.45540597 -5.52401605 0.00866399 0 0 Z " fill="currentColor" transform="translate(1502.9609375,216.83203125)"/>
<path d="M0 0 C1.26972656 -0.01224609 2.53945312 -0.02449219 3.84765625 -0.03710938 C26.56105326 -0.07191029 26.56105326 -0.07191029 31.5 4.625 C35.3309182 10.2345588 34.54672834 16.44296985 34.625 23 C34.68107422 24.7644043 34.68107422 24.7644043 34.73828125 26.56445312 C34.83717713 36.28372044 34.83717713 36.28372044 32.2265625 39.88671875 C26.47602132 44.33169087 19.81520518 44.48261468 12.8125 44.3828125 C12.04695801 44.3799826 11.28141602 44.37715271 10.49267578 44.37423706 C8.07828276 44.36315648 5.66427846 44.33807601 3.25 44.3125 C1.60026582 44.30245448 -0.04947424 44.2933314 -1.69921875 44.28515625 C-5.71629268 44.26325712 -9.73308073 44.22881325 -13.75 44.1875 C-13.91720361 38.08210368 -14.07780433 31.97658383 -14.23217773 25.87084961 C-14.28568107 23.79202552 -14.34101658 21.71324778 -14.39819336 19.63452148 C-14.47987259 16.65358477 -14.55504838 13.67254569 -14.62890625 10.69140625 C-14.65594131 9.75599503 -14.68297638 8.8205838 -14.71083069 7.85682678 C-14.73092697 6.99600998 -14.75102325 6.13519318 -14.77172852 5.24829102 C-14.79171402 4.48662125 -14.81169952 3.72495148 -14.83229065 2.94020081 C-14.58742808 -2.27510394 -3.7703249 0.00184639 0 0 Z " fill="currentColor" transform="translate(241.75,217.8125)"/>
<path d="M0 0 C40 0 40 0 49 3 C53.77825872 7.77825872 54.15272075 12.00750328 54.17700195 18.48144531 C54.18685875 19.62103447 54.18685875 19.62103447 54.19691467 20.78364563 C54.21662825 23.29847312 54.22830654 25.81324092 54.23828125 28.328125 C54.24235678 29.18820915 54.2464323 30.0482933 54.25063133 30.93444061 C54.27148481 35.48770405 54.28578908 40.04093743 54.29516602 44.59423828 C54.3062229 49.28955771 54.34061636 53.98440225 54.38033772 58.67955399 C54.40652494 62.29647686 54.41485976 65.91328699 54.41844749 69.53029633 C54.42330881 71.2605993 54.43490983 72.99089739 54.45348549 74.72110748 C54.47792023 77.14810953 54.47690438 79.57388832 54.4699707 82.00097656 C54.48278076 82.70980484 54.49559082 83.41863312 54.50878906 84.14894104 C54.45237119 89.59267207 52.99363538 92.61239025 50 97 C36.7458297 106.94062773 11.40031038 101 0 101 C0 67.67 0 34.34 0 0 Z " fill="currentColor" transform="translate(1651,218)"/>
<path d="M0 0 C1.9949883 2.99248245 2.74304654 5.15093187 3.69580078 8.58544922 C4.01598175 9.73028778 4.33616272 10.87512634 4.66604614 12.05465698 C5.00570404 13.29216705 5.34536194 14.52967712 5.6953125 15.8046875 C6.04761932 17.0759549 6.39992615 18.34722229 6.76290894 19.65701294 C7.50782071 22.34767252 8.24868599 25.03940609 8.98681641 27.73193359 C9.93145806 31.17624865 10.88674975 34.61750273 11.84520149 38.05799675 C12.58241143 40.70935562 13.31356762 43.36235528 14.04296494 46.01587296 C14.56233217 47.9007258 15.08704855 49.78410207 15.61184692 51.66744995 C15.92572357 52.81859283 16.23960022 53.96973572 16.56298828 55.15576172 C16.84119415 56.16597382 17.11940002 57.17618591 17.40603638 58.2170105 C18 61 18 61 18 66 C6.45 66 -5.1 66 -17 66 C-14.74989187 53.62440529 -14.74989187 53.62440529 -13.50366211 49.02539062 C-13.22675034 47.99482544 -12.94983856 46.96426025 -12.66453552 45.90246582 C-12.37176224 44.8312146 -12.07898895 43.75996338 -11.77734375 42.65625 C-11.47180069 41.52473511 -11.16625763 40.39322021 -10.85145569 39.22741699 C-9.88435583 35.65045328 -8.91092266 32.07524755 -7.9375 28.5 C-7.28020412 26.07041928 -6.62329942 23.64073271 -5.96679688 21.2109375 C-4.76909521 16.78649702 -3.57124551 12.36210198 -2.36694336 7.93945312 C-2.12648788 7.0555188 -1.88603241 6.17158447 -1.63829041 5.26086426 C-1.13926145 3.4932727 -0.58081062 1.74243187 0 0 Z " fill="currentColor" transform="translate(418,222)"/>
<path d="M0 0 C5.96260189 4.82082706 10.96679794 10.22494276 16 16 C14.27845212 19.76488042 12.00765886 22.15063897 9 25 C4.58321877 23.00887692 1.97400484 20.09116558 -1.25 16.5625 C-1.80429688 15.97662109 -2.35859375 15.39074219 -2.9296875 14.78710938 C-7 10.37092057 -7 10.37092057 -7 7 C-5.46875 5.17578125 -5.46875 5.17578125 -3.5 3.3125 C-2.8503125 2.68988281 -2.200625 2.06726563 -1.53125 1.42578125 C-0.77328125 0.72001953 -0.77328125 0.72001953 0 0 Z " fill="currentColor" transform="translate(1120,235)"/>
<path d="M0 0 C2.92293008 1.32375339 5.02829096 2.76656274 7.31567383 5.00927734 C7.93924271 5.61685883 8.56281158 6.22444031 9.20527649 6.85043335 C10.1961451 7.8332579 10.1961451 7.8332579 11.20703125 8.8359375 C11.89182053 9.5116983 12.5766098 10.18745911 13.28215027 10.88369751 C14.72459077 12.31165193 16.16425421 13.74241631 17.60131836 15.17578125 C19.80975997 17.3722748 22.03616401 19.5494285 24.26367188 21.7265625 C25.66260331 23.11603568 27.06042886 24.50662334 28.45703125 25.8984375 C29.12773148 26.54960541 29.7984317 27.20077332 30.48945618 27.87167358 C31.09726425 28.48555939 31.70507233 29.09944519 32.33129883 29.73193359 C32.87216629 30.26773041 33.41303375 30.80352722 33.97029114 31.3555603 C35 33 35 33 34.85429382 35.14175415 C34.57237686 35.75497528 34.2904599 36.36819641 34 37 C33.01 37.33 32.02 37.66 31 38 C31 38.66 31 39.32 31 40 C29.68 40.99 28.36 41.98 27 43 C15.78 31.78 4.56 20.56 -7 9 C-5.04783565 5.09567131 -3.12613393 2.96160056 0 0 Z " fill="currentColor" transform="translate(1003,316)"/>
<path d="M0 0 C2.95265112 1.32994383 5.02350216 2.77779316 7.29980469 5.07275391 C7.92014587 5.69324615 8.54048706 6.3137384 9.17962646 6.95303345 C9.83706848 7.62079803 10.4945105 8.28856262 11.171875 8.9765625 C11.8542926 9.66181 12.53671021 10.3470575 13.23980713 11.05307007 C15.41461598 13.23905845 17.58236072 15.43190429 19.75 17.625 C21.2247999 19.10983255 22.70005506 20.59421306 24.17578125 22.078125 C27.78915448 25.7135291 31.39620853 29.35509824 35 33 C33.27845212 36.76488042 31.00765886 39.15063897 28 42 C24.87675456 40.61370756 22.75809293 39.00488429 20.35546875 36.5859375 C19.67806641 35.90660156 19.00066406 35.22726562 18.30273438 34.52734375 C17.60470703 33.81707031 16.90667969 33.10679687 16.1875 32.375 C15.50107422 31.68792969 14.81464844 31.00085938 14.10742188 30.29296875 C10.09522238 26.24660672 6.27441011 22.08503911 2.55151367 17.77197266 C0.64099623 15.58998437 -1.36904401 13.53216729 -3.4375 11.5 C-4.11683594 10.8296875 -4.79617188 10.159375 -5.49609375 9.46875 C-5.99238281 8.9840625 -6.48867188 8.499375 -7 8 C-6.02133662 6.85373678 -5.04205413 5.70800212 -4.0625 4.5625 C-3.51722656 3.92441406 -2.97195313 3.28632813 -2.41015625 2.62890625 C-1.63204305 1.73008851 -0.84063472 0.84063472 0 0 Z " fill="currentColor" transform="translate(972,347)"/>
<path d="M0 0 C4.66874537 3.89976721 9.09127809 7.95214644 13.37109375 12.2734375 C13.93828629 12.84204498 14.50547882 13.41065247 15.08985901 13.99649048 C16.87479913 15.78696236 18.65620256 17.58090484 20.4375 19.375 C21.65796939 20.60049323 22.87867053 21.82575572 24.09960938 23.05078125 C27.06908756 26.03119774 30.03540257 29.01472894 33 32 C31.28418916 36.63268926 29.34849752 37.37625207 25 41 C14.44 30.44 3.88 19.88 -7 9 C-5.04783565 5.09567131 -3.12613393 2.96160056 0 0 Z " fill="currentColor" transform="translate(942,379)"/>
</svg>
