<?xml version="1.0" encoding="UTF-8"?>
<svg version="1.1" xmlns="http://www.w3.org/2000/svg" width="500" height="500" viewBox="0 0 500 500" fill-rule="evenodd">
<path d="M138 123 C137.38817871 123.50208984 136.77635742 124.00417969 136.14599609 124.52148438 C123.5843163 134.1537942 123.5843163 134.1537942 115 147 C114.8032846 149.6219353 114.68405384 152.18882235 114.625 154.8125 C114.28628458 162.59597073 113.19458577 166.71907407 107.6875 172.375 C104.35993176 174.38701801 101.87361741 174.85914119 98 175 C95.875 174.0625 95.875 174.0625 94 173 C91.64412618 172.52341515 91.64412618 172.52341515 89 173 C86.30102861 174.94308363 86.30102861 174.94308363 83.734375 177.63671875 C83.25550842 178.11317337 82.77664185 178.58962799 82.28326416 179.08052063 C81.27553532 180.08922711 80.27399095 181.10414518 79.27832031 182.12475586 C77.75670061 183.68064846 76.2125789 185.21116056 74.6640625 186.74023438 C73.68606105 187.72513571 72.70945018 188.71142025 71.734375 189.69921875 C70.84975586 190.59471436 69.96513672 191.49020996 69.05371094 192.4128418 C66.91704458 195.10450292 66.20916616 196.60248254 66 200 C68.10285265 205.03182599 72.39787336 208.58016738 76.25 212.3125 C77.62164641 213.66087626 78.99146759 215.01111199 80.359375 216.36328125 C81.27928223 217.26494019 81.27928223 217.26494019 82.21777344 218.18481445 C84.06073293 220.06185608 85.78400229 222.00658426 87.5 224 C91.062982 228.10546703 94.77599409 232.03812708 98.5625 235.9375 C99.20058594 236.61361328 99.83867188 237.28972656 100.49609375 237.98632812 C103.31697458 240.85695478 105.32321345 242.75763158 109.15234375 244.12890625 C114.55760416 243.88422368 117.94210849 240.30809755 121.609375 236.62109375 C122.44597656 235.78255859 123.28257813 234.94402344 124.14453125 234.08007812 C125.00433594 233.20802734 125.86414063 232.33597656 126.75 231.4375 C127.62527344 230.56158203 128.50054687 229.68566406 129.40234375 228.78320312 C135.01859434 223.77643229 135.01859434 223.77643229 137.125 217 C137.20828603 214.07524672 137.20828603 214.07524672 136 212 C135.64660744 206.67702453 136.68680812 202.77733169 140.0625 198.625 C144.26381357 194.33811996 148.25653429 192.14006164 154.296875 191.9140625 C161.22013353 192.35547831 165.40629454 195.31254542 170.1875 200.1875 C173.34905766 203.34905766 174.8577825 203.82082863 179.1875 204.5 C183.18504 203.97573246 183.78799819 203.66175185 186.59375 201.09765625 C187.29072998 200.46166504 187.98770996 199.82567383 188.70581055 199.17041016 C192.96118797 195.14462477 197.15807469 191.06739734 201.3125 186.9375 C202.20517578 186.06544922 203.09785156 185.19339844 204.01757812 184.29492188 C204.87416016 183.44349609 205.73074219 182.59207031 206.61328125 181.71484375 C207.38454346 180.95292725 208.15580566 180.19101074 208.95043945 179.40600586 C212.0460032 175.77208319 213.94010578 172.55724968 214.125 167.75 C212.7716571 163.23885701 210.49269189 160.30513238 207.7265625 156.54296875 C203.73993658 150.67126406 202.34596899 145.07784927 203.4921875 138.06640625 C204.89038864 132.37680314 207.68209815 128.83813498 212 125 C212.53109375 124.52691406 213.0621875 124.05382812 213.609375 123.56640625 C225.89224595 113.46190771 242.86920368 109.31486047 258.53125 109.625 C263.47359153 110.15930719 268.2215874 111.31156291 273.00146484 112.66430664 C277.75341547 113.95654339 281.16519431 114.00356933 286 113 C285.11198379 107.02137925 282.52942246 103.89674123 278 100 C229.85544497 68.86115892 178.05866397 90.11184807 138 123 Z M374 104 C373.46795456 104.53426605 372.93590912 105.0685321 372.38774109 105.61898804 C367.37297552 110.65379166 362.35580685 115.68618526 357.3359251 120.71588707 C354.75525047 123.30178001 352.17551423 125.88859483 349.59790039 128.47753906 C347.11027892 130.97602675 344.62022183 133.47206294 342.12845802 135.96641922 C340.71591268 137.38171111 339.30590031 138.79952959 337.8959198 140.21737671 C337.03525406 141.07811798 336.17458832 141.93885925 335.2878418 142.82568359 C334.53061325 143.58513275 333.7733847 144.34458191 332.99320984 145.12704468 C331 147 331 147 328 149 C328 149.66 328 150.32 328 151 C327.18024689 151.3327594 327.18024689 151.3327594 326.34393311 151.67224121 C323.2672913 153.41505468 320.96658653 155.7546253 318.49707031 158.24414062 C317.69152458 159.0444294 317.69152458 159.0444294 316.8697052 159.86088562 C315.10078929 161.62101769 313.3392671 163.38834218 311.578125 165.15625 C310.35102094 166.38200685 309.12362012 167.60746667 307.89593506 168.8326416 C305.32725937 171.3983709 302.76223108 173.96767794 300.19970703 176.53955078 C296.9087032 179.84197285 293.60877079 183.13530395 290.30607986 186.42603302 C287.77181756 188.95308419 285.24231854 191.48485982 282.71425629 194.01811218 C281.49883751 195.23486828 280.28192263 196.45013177 279.06351471 197.66389465 C277.36591776 199.35643605 275.67482511 201.05521458 273.98535156 202.75585938 C273.47734512 203.25981735 272.96933868 203.76377533 272.44593811 204.28300476 C269.7711452 206.68947667 269.7711452 206.68947667 269 210 C270.37734944 211.39646631 270.37734944 211.39646631 272.24023438 212.87133789 C278.19793647 217.94229059 283.64202776 223.51787455 289.15625 229.05859375 C290.31044894 230.21466163 291.46487172 231.37050606 292.61950684 232.52613831 C295.63341408 235.5438333 298.64430403 238.56452087 301.65454102 241.58587646 C304.73660074 244.67823147 307.82155233 247.76769868 310.90625 250.85742188 C316.94030804 256.90215112 322.97117643 262.95005006 329 269 C334.96125222 264.05817281 340.42035041 258.71498171 345.88256836 253.23095703 C346.85874287 252.25449993 347.83513866 251.27826399 348.81173706 250.30223083 C351.44364693 247.67060613 354.07247704 245.03592479 356.70073771 242.40065622 C359.45490298 239.64021058 362.21192841 236.8826245 364.96864319 234.12472534 C370.18010986 228.91015911 375.38902365 223.69305057 380.5970102 218.47500885 C386.52977656 212.5310385 392.46540599 206.58993069 398.40126979 200.64905381 C410.60402023 188.43587015 422.80319582 176.2191219 435 164 C434.04896181 162.71764431 433.09594141 161.43675855 432.14208984 160.15649414 C431.61159027 159.44304337 431.0810907 158.72959259 430.53451538 157.99452209 C428.71643351 155.63142786 426.75428118 153.52324569 424.625 151.4375 C423.93664062 150.75558594 423.24828125 150.07367188 422.5390625 149.37109375 C420.51514983 147.48107069 418.46248389 145.6728777 416.36206055 143.87084961 C411.93153063 140.00044499 407.79314877 135.88647983 403.66796875 131.6953125 C402.11275984 130.12747557 400.55741751 128.55977098 399.00195312 126.9921875 C396.57955422 124.54484087 394.15879978 122.09590749 391.74047852 119.64453125 C389.38730918 117.2612872 387.02806315 114.88419603 384.66796875 112.5078125 C383.94296677 111.76935089 383.21796478 111.03088928 382.47099304 110.27005005 C381.45897575 109.25296463 381.45897575 109.25296463 380.42651367 108.21533203 C379.83553391 107.61689484 379.24455414 107.01845764 378.63566589 106.40188599 C376.94043588 104.77055647 376.94043588 104.77055647 374 104 Z M212.6875 193.0625 C211.54099434 194.25966559 210.3925631 195.45499012 209.2421875 196.6484375 C208.68885742 197.2269043 208.13552734 197.80537109 207.56542969 198.40136719 C205.01189636 201.00906154 202.27257059 203.37544886 199.48828125 205.73046875 C197.87189265 207.07539285 197.87189265 207.07539285 196 209 C196.07018377 214.02691278 199.17872543 216.80151872 202.5 220.1875 C203.60733259 221.34972545 204.7140995 222.51249012 205.8203125 223.67578125 C206.3659082 224.24377441 206.91150391 224.81176758 207.47363281 225.39697266 C209.48934007 227.51391665 211.43446262 229.6891494 213.375 231.875 C217.79577266 236.81206727 222.32130105 241.64818465 226.86474609 246.47216797 C229.78776037 249.58597734 232.65713782 252.73177772 235.45703125 255.95703125 C239.05413193 260.09399696 242.79076196 264.08498828 246.5625 268.0625 C247.97158842 269.5544663 249.38043788 271.04665831 250.7890625 272.5390625 C251.49192383 273.28317383 252.19478516 274.02728516 252.91894531 274.79394531 C260.60209457 282.93858829 268.25290151 291.10905451 275.7109375 299.4609375 C279.01887647 303.13015308 282.38179702 306.74822384 285.75244141 310.35986328 C288.17786447 312.97141777 290.50619966 315.60785258 292.734375 318.390625 C293.48203125 319.25171875 294.2296875 320.1128125 295 321 C295.66 321 296.32 321 297 321 C297.25394531 321.58265625 297.50789063 322.1653125 297.76953125 322.765625 C299.13320333 325.24188033 300.64225203 326.80520626 302.6875 328.75 C305.32084141 331.3173901 307.85121203 333.89971939 310.25 336.6875 C313.38034079 340.32527046 316.61231978 343.85645321 319.875 347.375 C323.40486743 351.18262571 326.91579559 355.00275626 330.375 358.875 C334.74316895 363.74962332 339.20805752 368.53030933 343.68457031 373.30517578 C346.54533905 376.35919775 349.39414621 379.42163758 352.203125 382.5234375 C352.69828613 383.0695166 353.19344727 383.6155957 353.70361328 384.17822266 C355.03701932 385.65271047 356.36631333 387.13091392 357.6953125 388.609375 C361.77423064 392.89823897 361.77423064 392.89823897 367.3125 394.3125 C379.68292802 393.26415864 388.1105039 385.07978758 396 376 C400.10155713 370.38784607 401.92694514 365.95208852 401 359 C399.89858275 356.30305165 399.89858275 356.30305165 398 354 C397.278125 353.05125 396.55625 352.1025 395.8125 351.125 C393.1820612 348.03777841 390.18747968 345.47676505 387.10546875 342.8515625 C384.97619202 340.97906311 382.98702996 339.02216408 381 337 C378.54087905 334.50290035 376.04906214 332.13941858 373.375 329.875 C368.54681285 325.75172817 364.15974595 321.18162761 359.74755859 316.62255859 C358.87091553 315.72851318 358.87091553 315.72851318 357.9765625 314.81640625 C357.45143066 314.27443604 356.92629883 313.73246582 356.38525391 313.17407227 C355.04835763 311.78447906 355.04835763 311.78447906 353 312 C352.67 311.01 352.34 310.02 352 309 C350.61088239 307.5918868 350.61088239 307.5918868 348.8125 306.1875 C344.02193619 302.13925779 339.65958746 297.71760935 335.27661133 293.23901367 C332.31068322 290.22999702 329.29725166 287.34995841 326.09375 284.59375 C320.90170594 280.11198557 316.15831676 275.20673783 311.35546875 270.31640625 C307.3444992 266.26144069 303.24287958 262.41662452 298.91992188 258.69726562 C295.19272531 255.4023177 291.76501425 251.80531137 288.2890625 248.25 C285.35641332 245.2775411 282.38414518 242.43044654 279.2109375 239.71484375 C273.08820273 234.43239747 267.54136854 228.54770986 261.89453125 222.76757812 C261.03472656 221.89681641 260.17492187 221.02605469 259.2890625 220.12890625 C258.51256348 219.33556885 257.73606445 218.54223145 256.93603516 217.72485352 C255.18327192 215.77826306 255.18327192 215.77826306 253 216 C252.505 214.515 252.505 214.515 252 213 C250.61088239 211.5918868 250.61088239 211.5918868 248.8125 210.1875 C243.95789297 206.08785898 239.54252896 201.5990584 235.10083008 197.06323242 C229.11336207 190.45352886 229.11336207 190.45352886 221.51953125 186.30859375 C217.55266273 187.39717627 215.42309982 190.09775688 212.6875 193.0625 Z M218 260 C216.89912048 261.10421043 216.89912048 261.10421043 215.77600098 262.23072815 C208.83512594 269.1919375 201.89156432 276.15045721 194.94541168 283.10640049 C191.37502854 286.6819864 187.80557505 290.25848989 184.23828125 293.8371582 C180.79105433 297.29530701 177.3413398 300.75095664 173.88993835 304.20493889 C172.57826656 305.51844824 171.26747033 306.83283256 169.95759583 308.14813423 C157.90728952 320.24634643 157.90728952 320.24634643 151.71908569 325.51344299 C148.72822809 328.09974823 145.93424793 330.88361572 143.12890625 333.66796875 C142.21720924 334.57111565 142.21720924 334.57111565 141.28709412 335.49250793 C140.01953916 336.75071133 138.75335787 338.01030005 137.48852539 339.27124023 C135.54950461 341.2004295 133.60006958 343.11869955 131.65039062 345.03710938 C130.41340819 346.26757174 129.17705674 347.49866883 127.94140625 348.73046875 C127.35919815 349.30033005 126.77699005 349.87019135 126.17713928 350.45732117 C122.31701772 354.12153297 122.31701772 354.12153297 121 359 C122.76836322 361.50183241 122.76836322 361.50183241 125.39697266 363.96459961 C125.87647369 364.44483078 126.35597473 364.92506195 126.8500061 365.41984558 C128.44312883 367.00947685 130.05325963 368.58064701 131.6640625 370.15234375 C132.77561365 371.25456519 133.88606281 372.35789898 134.99545288 373.46229553 C137.9254151 376.37314164 140.87006173 379.26868436 143.81799316 382.16131592 C146.80028515 385.0927379 149.7687476 388.0380862 152.73828125 390.98242188 C157.97909703 396.17535705 163.23199165 401.35579559 168.49380493 406.52745056 C170.23254393 408.24284702 171.96014971 409.96957302 173.67880249 411.70509338 C175.6909409 413.69444144 177.69090615 415.37508211 180 417 C185.44032445 412.45572899 190.49081282 407.59996261 195.43457031 402.52832031 C198.11139379 399.80431215 200.85743977 397.22775939 203.75514221 394.73869324 C207.66276335 391.33389434 211.37543276 387.77882359 215.04272461 384.1184082 C215.69577576 383.47032196 216.3488269 382.82223572 217.02166748 382.1545105 C219.15129324 380.03932883 221.27715055 377.92041587 223.40234375 375.80078125 C224.13294069 375.07301168 224.86353764 374.34524212 225.61627388 373.59541893 C229.47157181 369.75502999 233.32404889 365.9118386 237.17407227 362.06616211 C241.15092195 358.09482987 245.13698869 354.13288316 249.1252203 350.17298603 C252.19536062 347.12143172 255.25880904 344.0632268 258.32043648 341.00313377 C259.78800104 339.53859806 261.25806893 338.07656644 262.73066521 336.61709023 C264.78190705 334.58284701 266.82353765 332.53941452 268.86303711 330.4934082 C269.47337296 329.89228714 270.0837088 329.29116608 270.71253967 328.67182922 C274.53673043 324.93353248 274.53673043 324.93353248 276 320 C274.06458594 317.71379214 272.18602446 315.76964875 270 313.75 C268.78073081 312.58132424 267.56326634 311.41076259 266.34765625 310.23828125 C265.46811279 309.39644287 265.46811279 309.39644287 264.57080078 308.53759766 C262.75004688 306.75533031 261.07595039 304.88803618 259.4375 302.9375 C256.02688879 298.91450972 252.2989867 295.24114098 248.52514648 291.56225586 C245.1282625 288.22433965 241.98097561 284.72868455 238.86523438 281.12792969 C235.57994211 277.37994443 232.16394479 273.75550099 228.75 270.125 C228.04359375 269.36703125 227.3371875 268.6090625 226.609375 267.828125 C225.92875 267.10367187 225.248125 266.37921875 224.546875 265.6328125 C223.93682617 264.98199707 223.32677734 264.33118164 222.69824219 263.66064453 C220.89973888 261.79945539 220.89973888 261.79945539 218 260 Z " fill="currentColor" transform="translate(0,0)"/>
<path d="M0 0 C4.19625909 1.63778045 6.98676785 4.73323182 10.078125 7.8828125 C10.64956238 8.45707977 11.22099976 9.03134705 11.80975342 9.62301636 C13.62792945 11.4523581 15.43901492 13.28854193 17.25 15.125 C18.48391329 16.36894774 19.71828322 17.6124427 20.953125 18.85546875 C23.97406743 21.89842367 26.98867092 24.94753254 30 28 C28.58208437 30.93446886 27.01667393 33.43332409 25 36 C20.95142741 34.37960429 18.2013779 31.50743109 15.17578125 28.4765625 C14.62891159 27.93397797 14.08204193 27.39139343 13.51860046 26.83236694 C12.36719758 25.68669335 11.21838796 24.53840835 10.07202148 23.38769531 C8.31681518 21.62932296 6.54869224 19.88470467 4.77929688 18.140625 C3.66064813 17.02424877 2.54278241 15.90708724 1.42578125 14.7890625 C0.89664627 14.26913727 0.36751129 13.74921204 -0.17765808 13.21353149 C-4.98420622 8.34557416 -4.98420622 8.34557416 -5 5 C-2.5625 2.25 -2.5625 2.25 0 0 Z " fill="currentColor" transform="translate(376,137)"/>
<path d="M0 0 C5.95982408 4.9489991 11.45942623 10.27609206 16.9375 15.75 C17.81212891 16.61238281 18.68675781 17.47476563 19.58789062 18.36328125 C20.82635742 19.59884766 20.82635742 19.59884766 22.08984375 20.859375 C22.84128662 21.60670898 23.59272949 22.35404297 24.36694336 23.12402344 C26 25 26 25 26 27 C25.34 27 24.68 27 24 27 C23.34 28.32 22.68 29.64 22 31 C21.34 31 20.68 31 20 31 C19.67 31.66 19.34 32.32 19 33 C10.75 24.75 2.5 16.5 -6 8 C-4.21844267 4.43688534 -2.83236991 2.64354525 0 0 Z " fill="currentColor" transform="translate(352,160)"/>
<path d="M0 0 C4.08923295 2.04461648 6.7169902 4.46003283 9.859375 7.6640625 C10.40861633 8.21613373 10.95785767 8.76820496 11.52374268 9.33700562 C13.27059293 11.09501815 15.01034601 12.8598689 16.75 14.625 C17.93573591 15.8207708 19.1219288 17.01608865 20.30859375 18.2109375 C23.21105085 21.13540253 26.1071641 24.06601874 29 27 C28.04578192 28.14926266 27.08647955 29.29430541 26.125 30.4375 C25.59132813 31.07558594 25.05765625 31.71367187 24.5078125 32.37109375 C23 34 23 34 21 35 C20.61577881 34.54431641 20.23155762 34.08863281 19.83569336 33.61914062 C14.69294931 27.62238034 9.1725403 22.05753452 3.5625 16.5 C2.64017578 15.5821875 1.71785156 14.664375 0.76757812 13.71875 C-1.48599899 11.47684945 -3.74189075 9.237334 -6 7 C-4.02 4.69 -2.04 2.38 0 0 Z " fill="currentColor" transform="translate(327,185)"/>
<path d="M0 0 C4.91935902 4.11619836 9.52647956 8.40410362 14 13 C13.34 14.32 12.68 15.64 12 17 C11.34 17 10.68 17 10 17 C9.34 18.32 8.68 19.64 8 21 C3.08064098 16.88380164 -1.52647956 12.59589638 -6 8 C-4.44805246 4.67240077 -2.69378051 2.51419515 0 0 Z " fill="currentColor" transform="translate(318,222)"/>
<path d="M0 0 C4.10108886 1.62156024 6.83148167 4.5767703 9.859375 7.6640625 C10.40861633 8.21613373 10.95785767 8.76820496 11.52374268 9.33700562 C13.27059293 11.09501815 15.01034601 12.8598689 16.75 14.625 C17.93573591 15.8207708 19.1219288 17.01608865 20.30859375 18.2109375 C23.21105085 21.13540253 26.1071641 24.06601874 29 27 C27.50902342 30.7952131 25.24299151 32.61042731 22 35 C18.1205795 31.24398282 14.2577266 27.47197568 10.40942383 23.68408203 C9.0974676 22.39730263 7.78106348 21.11504214 6.46020508 19.83740234 C4.56450531 18.00221121 2.6852906 16.15146937 0.80859375 14.296875 C0.21284042 13.7269281 -0.3829129 13.1569812 -0.99671936 12.56976318 C-2.63500977 10.93261719 -2.63500977 10.93261719 -5 8 C-4.58341924 4.18896784 -2.79172351 2.52155672 0 0 Z " fill="currentColor" transform="translate(223,288)"/>
<path d="M0 0 C4.10108886 1.62156024 6.83148167 4.5767703 9.859375 7.6640625 C10.40861633 8.21613373 10.95785767 8.76820496 11.52374268 9.33700562 C13.27059293 11.09501815 15.01034601 12.8598689 16.75 14.625 C17.93573591 15.8207708 19.1219288 17.01608865 20.30859375 18.2109375 C23.21105085 21.13540253 26.1071641 24.06601874 29 27 C27.02 29.31 25.04 31.62 23 34 C19.22154234 32.11077117 17.30165752 30.54731962 14.375 27.60546875 C13.50359375 26.73212891 12.6321875 25.85878906 11.734375 24.95898438 C10.83203125 24.04439453 9.9296875 23.12980469 9 22.1875 C8.09765625 21.28451172 7.1953125 20.38152344 6.265625 19.45117188 C2.28097153 15.43999335 -1.52566914 11.46834247 -5 7 C-3.70700306 4.11562221 -2.34058637 2.12780579 0 0 Z " fill="currentColor" transform="translate(198,313)"/>
<path d="M0 0 C6.18134869 5.10448822 11.79822878 10.68294942 17.4375 16.375 C18.35982422 17.30183594 19.28214844 18.22867187 20.23242188 19.18359375 C22.49058625 21.45345846 24.74636942 23.72563538 27 26 C25.34807388 30.20490286 23.98771331 30.80982935 20 34 C11.42 25.42 2.84 16.84 -6 8 C-4.21844267 4.43688534 -2.83236991 2.64354525 0 0 Z " fill="currentColor" transform="translate(174,339)"/>
</svg>
